<svg width="36" height="36" viewBox="0 0 36 36" fill="none" xmlns="http://www.w3.org/2000/svg">
<path fill-rule="evenodd" clip-rule="evenodd" d="M18 36C27.9411 36 36 27.9411 36 18C36 8.05887 27.9411 0 18 0C8.05887 0 0 8.05887 0 18C0 27.9411 8.05887 36 18 36ZM6.99997 13.469C6.99997 9.91397 9.91797 6.99997 13.469 6.99997H22.531C26.086 6.99997 29 9.91797 29 13.47V22.531C29 26.086 26.082 29 22.531 29H13.469C9.91397 29 6.99997 26.082 6.99997 22.531V13.469ZM22.531 8.99997H13.469C12.8818 8.99918 12.3002 9.11426 11.7576 9.33863C11.215 9.56301 10.7219 9.89225 10.3068 10.3075C9.89163 10.7227 9.5625 11.2158 9.33825 11.7585C9.114 12.3012 8.99904 12.8828 8.99997 13.47V22.531C8.99918 23.1182 9.11426 23.6997 9.33863 24.2423C9.56301 24.785 9.89225 25.278 10.3075 25.6931C10.7227 26.1083 11.2158 26.4374 11.7585 26.6617C12.3012 26.8859 12.8828 27.0009 13.47 27H22.531C23.1181 27.0008 23.6996 26.8857 24.2421 26.6614C24.7847 26.4371 25.2776 26.1079 25.6928 25.6928C26.1079 25.2776 26.4371 24.7847 26.6614 24.2421C26.8857 23.6996 27.0008 23.1181 27 22.531V13.469C27.0008 12.8819 26.8857 12.3004 26.6614 11.7578C26.4371 11.2153 26.1079 10.7223 25.6928 10.3071C25.2776 9.892 24.7847 9.56285 24.2421 9.33854C23.6996 9.11423 23.1181 8.99918 22.531 8.99997ZM23.5586 11.2559C23.6688 11.2105 23.7868 11.1874 23.906 11.188C24.0252 11.1873 24.1433 11.2103 24.2536 11.2556C24.3639 11.3008 24.4641 11.3675 24.5484 11.4518C24.6328 11.536 24.6996 11.6362 24.745 11.7464C24.7904 11.8566 24.8135 11.9748 24.813 12.094C24.8135 12.2132 24.7904 12.3313 24.745 12.4415C24.6996 12.5518 24.6328 12.6519 24.5484 12.7361C24.4641 12.8204 24.3639 12.8871 24.2536 12.9324C24.1433 12.9777 24.0252 13.0006 23.906 13C23.402 13 23 12.598 23 12.094C22.9994 11.9748 23.0225 11.8568 23.0679 11.7466C23.1132 11.6365 23.1799 11.5364 23.2641 11.4521C23.3484 11.3679 23.4485 11.3012 23.5586 11.2559ZM12 18C12 14.7 14.7 12 18 12C21.3 12 24 14.7 24 18C24 21.3 21.3 24 18 24C14.7 24 12 21.3 12 18ZM22 18C22 15.777 20.223 14 18 14C15.777 14 14 15.777 14 18C14 20.223 15.777 22 18 22C20.223 22 22 20.223 22 18Z" fill="#858585"/>
</svg>
